HIERARCHY
ROOT Hips
{
  OFFSET -102.467 93.6631 130.069
  CHANNELS 6 Xposition Yposition Zposition Zrotation Xrotation Yrotation
  JOINT LeftUpLeg
  {
    OFFSET 8.64259 1.95398 -2.38835
    CHANNELS 3 Zrotation Xrotation Yrotation
    JOINT LeftLeg
    {
      OFFSET 43.7702 0 0
      CHANNELS 3 Zrotation Xrotation Yrotation
      JOINT LeftFoot
      {
        OFFSET 40.6238 0 0
        CHANNELS 3 Zrotation Xrotation Yrotation
        JOINT LeftToeBase
        {
          OFFSET 12.7242 0 0
          CHANNELS 3 Zrotation Xrotation Yrotation
          End Site
          {
            OFFSET 0 0 0
          }
        }
      }
    }
  }
  JOINT RightUpLeg
  {
    OFFSET -8.2249 1.95398 -2.59336
    CHANNELS 3 Zrotation Xrotation Yrotation
    JOINT RightLeg
    {
      OFFSET 43.5653 0 0
      CHANNELS 3 Zrotation Xrotation Yrotation
      JOINT RightFoot
      {
        OFFSET 40.6238 0 0
        CHANNELS 3 Zrotation Xrotation Yrotation
        JOINT RightToeBase
        {
          OFFSET 12.7242 0 0
          CHANNELS 3 Zrotation Xrotation Yrotation
          End Site
          {
            OFFSET 0 0 0
          }
        }
      }
    }
  }
  JOINT Spine
  {
    OFFSET 0.165834 0.87714 6.61349
    CHANNELS 3 Zrotation Xrotation Yrotation
    JOINT Spine1
    {
      OFFSET 7.38963 1.71661e-005 0
      CHANNELS 3 Zrotation Xrotation Yrotation
      JOINT Spine2
      {
        OFFSET 11.9445 1.14441e-005 0
        CHANNELS 3 Zrotation Xrotation Yrotation
        JOINT Spine3
        {
          OFFSET 14.7254 4.19617e-005 0
          CHANNELS 3 Zrotation Xrotation Yrotation
          JOINT Spine4
          {
            OFFSET 10.9679 0 0
            CHANNELS 3 Zrotation Xrotation Yrotation
            JOINT RightShoulder
            {
              OFFSET 2.46616 -1.6653 3.69651
              CHANNELS 3 Zrotation Xrotation Yrotation
              JOINT RightArm
              {
                OFFSET 13.0012 0 0
                CHANNELS 3 Zrotation Xrotation Yrotation
                JOINT RightForeArm
                {
                  OFFSET 28.7848 1.52588e-005 0
                  CHANNELS 3 Zrotation Xrotation Yrotation
                  JOINT RightHand
                  {
                    OFFSET 26.5688 1.52588e-005 0
                    CHANNELS 3 Zrotation Xrotation Yrotation
                    End Site
                    {
                      OFFSET 0 0 0
                    }
                  }
                }
              }
            }
            JOINT LeftShoulder
            {
              OFFSET 2.38034 -1.29275 -3.7523
              CHANNELS 3 Zrotation Xrotation Yrotation
              JOINT LeftArm
              {
                OFFSET 16.3182 6.10351e-005 0
                CHANNELS 3 Zrotation Xrotation Yrotation
                JOINT LeftForeArm
                {
                  OFFSET 27.0901 0 0
                  CHANNELS 3 Zrotation Xrotation Yrotation
                  JOINT LeftHand
                  {
                    OFFSET 24.5451 1.52588e-005 0
                    CHANNELS 3 Zrotation Xrotation Yrotation
                    End Site
                    {
                      OFFSET 0 0 0
                    }
                  }
                }
              }
            }
            JOINT Neck
            {
              OFFSET 5.0226 -0.0266342 0
              CHANNELS 3 Zrotation Xrotation Yrotation
              JOINT Head
              {
                OFFSET 6.69363 2.86102e-005 0
                CHANNELS 3 Zrotation Xrotation Yrotation
                End Site
                {
                  OFFSET 0 0 0
                }
              }
            }
          }
        }
      }
    }
  }
}
MOTION
Frames:	10
Frame Time:	0.0416667
-12.1669 76.8032 -71.6451 67.0372 -59.4116 64.1099 -146.959 67.6159 75.9301 -56.6588 18.7343 -7.16699 51.8886 -0.63713 12.8182 33.9339 -0.784988 -1.67594 176.309 53.0181 72.0318 -91.7312 -16.2423 -2.37241 70.5875 -3.54822 8.10168 77.43 -3.8587 13.8711 0.309125 14.9368 -89.5816 -3.00376 0.757581 0.876276 -14.6748 0.79539 0.84207 -37.2083 0.4592 1.06343 -17.1957 0.459206 1.06344 88.7715 -27.2255 -110.616 3.72752 21.5083 -71.1931 -1.85505 10.1593 -6.70805 2.87244 -0.100583 -7.48617 -102.145 -37.2507 54.8309 -8.72963 -12.459 -83.2638 2.98215 -24.0507 0.00581487 2.32458 -0.398545 -11.8695 17.2667 2.42478 15.843 6.19058 -2.59643 -4.13733 
0.333503 77.8631 -59.228 62.1183 -58.317 63.7564 -147.459 68.1166 76.4221 -75.1955 15.7984 -3.33221 62.2118 6.77801 11.9832 46.3125 -1.01013 3.68853 173.874 42.1985 71.3679 -85.7576 -21.4343 -2.08258 58.4473 3.9548 9.86069 68.2158 0.150481 17.1357 0.663166 14.485 -89.6021 -2.10379 1.45858 0.883106 -13.7741 1.49602 0.818041 -36.3113 1.12575 1.28063 -16.2987 1.12576 1.28065 85.1393 -37.4974 -112.99 0.883958 14.8466 -63.6386 1.06758 7.99162 -10.6099 -11.1771 -0.250574 -2.19741 -102.593 -38.6099 54.8022 -12.6942 -5.22022 -79.1893 2.0222 -22.6244 0.415323 10.1632 -0.741508 -10.2061 37.4941 4.19615 9.95903 -12.1316 -0.741699 -0.871122 
11.3002 80.0776 -47.1719 56.6474 -54.5497 60.7805 -153.768 61.7979 80.0179 -77.1921 24.8658 -3.29533 60.5802 10.4222 23.8593 65.1772 0.754299 13.2284 174.158 40.6959 73.7514 -87.1936 -22.6656 -2.40819 44.7114 11.2198 9.95468 12.6607 3.36447 1.63673 0.669695 13.6143 -89.3979 -0.365482 1.55625 1.24235 -12.036 1.60942 1.17265 -34.5707 1.11097 1.65258 -14.5581 1.11097 1.6526 87.8227 -41.7618 -106.87 7.55627 7.50544 -55.6209 -0.433362 3.13156 -22.8981 -11.2833 -0.342343 -1.64294 -99.0279 -40.6873 61.4686 -21.6078 0.28851 -72.8834 2.69419 -11.2167 -7.28718 10.152 -0.692073 -9.77688 34.36 4.12992 11.0174 -7.63541 -0.676972 -5.06274 
22.1361 84.3444 -34.6927 48.6288 -49.8051 55.5398 -160.989 51.0794 85.0001 -67.1021 26.5585 -4.15433 62.7771 12.7966 24.4288 70.8752 2.59938 16.8845 163.708 51.2888 86.6024 -91.5659 -16.3958 -1.0979 52.1689 6.30463 6.61993 16.0206 2.70952 -3.4243 0.525323 12.6202 -89.5232 1.62518 1.23124 0.962758 -10.0455 1.27242 0.907634 -32.5803 0.885 1.28825 -12.5676 0.884998 1.28827 92.4815 -46.1784 -97.981 11.1691 3.55923 -45.4386 -5.96936 -1.00598 -50.7408 -14.2842 -0.419702 -1.86613 -91.0065 -38.2962 73.9482 -33.7998 6.65567 -65.3807 9.30075 3.53342 -27.9753 3.90702 -0.301725 -8.48245 41.0946 3.39322 4.28947 -11.3847 0.952122 1.31447 
33.6889 88.5846 -22.2312 45.5925 -47.2977 55.2798 -168.101 37.1465 90.182 -52.9411 25.0318 -3.31127 61.5731 7.32616 15.2337 72.5741 1.66075 14.8245 141.891 57.0422 106.735 -83.5236 -15.7316 3.61252 61.0415 7.00776 18.2285 28.5591 1.78809 11.009 0.34442 11.7781 -90.2527 3.31865 0.587669 -0.491013 -8.35227 0.565489 -0.516405 -30.8882 0.708063 -0.291689 -10.8755 0.708063 -0.291695 98.6593 -44.1755 -88.0578 20.506 0.122796 -38.4825 -20.4655 -0.461648 -77.462 -12.2821 -0.719423 1.67739 -85.6442 -37.9023 83.0978 -29.4974 12.6967 -56.5167 6.99042 1.40585 -46.1893 -1.56235 -0.131378 -10.1435 28.4417 3.08897 -4.37813 -2.38244 4.80135 11.5357 
46.105 92.1175 -7.94558 44.2906 -48.5113 53.0601 -174.733 17.8338 90.2719 -32.3391 18.5465 0.291619 45.4358 -8.07385 -6.93097 65.2234 -3.20698 4.15477 143.719 58.502 109.183 -59.477 -17.726 11.2643 62.9732 8.58428 21.9425 52.21 3.10436 24.1009 0.160387 10.9209 -90.4841 5.03086 0.121138 -0.955273 -6.64042 0.0789854 -0.95969 -29.1731 0.402616 -0.874727 -9.16047 0.402627 -0.874709 100.243 -40.2589 -85.5701 23.6263 -10.1306 -30.2513 -21.8716 4.66378 -88.5052 -19.2197 -1.12257 1.58644 -85.9762 -43.734 83.5481 -18.1336 15.749 -40.8977 -0.333458 -5.01701 -59.9428 -0.382829 -0.246213 -13.3062 13.8998 4.58939 -9.70383 3.23137 8.25075 20.5532 
58.2739 92.8687 6.94908 52.9928 -50.9247 58.477 175.742 8.08129 88.0474 -45.1651 19.779 5.21002 36.4209 -11.228 -6.72207 43.3061 0.362701 9.96463 160.963 54.0879 97.7851 -48.0096 -12.0518 10.4042 60.042 7.3858 14.8926 57.2861 -2.34685 10.7586 0.162328 10.8344 -90.6358 5.2065 0.0614801 -1.25176 -6.465 0.00634335 -1.25326 -28.9963 0.434837 -1.17542 -8.98367 0.434848 -1.17542 98.7411 -42.5218 -88.0471 21.6105 -16.2646 -23.313 -14.1069 8.31741 -97.0633 -19.1044 -0.826682 -0.155599 -85.4599 -51.1074 85.4527 -9.83674 16.4617 -33.6331 -1.63073 -7.15642 -69.4405 3.57134 -0.527288 -12.7967 21.4056 3.26882 -11.7284 -8.58606 6.06041 23.4891 
69.4869 90.7261 21.3873 62.6423 -50.178 67.0988 176.107 21.4164 88.8228 -86.3154 14.3893 4.05494 43.1751 -5.88227 4.96609 45.5411 -0.923491 4.89059 165.402 44.3543 96.1138 -56.7765 -10.424 7.15791 62.8277 2.87336 6.98715 52.0993 -3.83943 5.08462 0.660296 10.7773 -90.9839 5.32181 0.910971 -1.94827 -6.35037 0.824376 -1.98645 -28.8793 1.45432 -1.58454 -8.86667 1.45433 -1.58454 98.1927 -40.3051 -89.1973 23.9249 -19.0514 -17.0251 -8.338 9.36289 -105.513 -17.995 -0.670891 -0.859547 -84.4858 -53.8661 87.2274 -0.604615 20.4481 -31.3228 -9.91221 -10.3861 -81.3584 11.4793 -0.827568 -10.5411 31.3409 3.08748 -0.943757 -15.2638 2.16985 11.4501 
80.6206 89.0959 37.0065 65.9244 -45.9572 67.9985 -179.154 45.8126 85.1713 -103.173 7.08132 2.99806 48.7759 1.04237 13.4605 47.9428 -0.609353 6.94816 169.255 29.1251 91.3529 -54.5103 -12.0478 6.34826 68.168 -2.77866 -0.313009 71.8665 -6.02168 8.86817 1.09636 9.90187 -90.7779 7.08075 1.85526 -1.61494 -4.58998 1.78237 -1.69502 -27.1322 2.25478 -0.982584 -7.11953 2.25479 -0.982585 98.297 -33.5081 -89.7093 32.4309 -24.7306 -3.07827 -4.17418 9.76029 -113.822 -18.8843 -0.998264 0.943464 -84.0456 -55.4858 88.0287 11.2427 28.1319 -27.6678 -20.3573 -11.7789 -91.4894 11.9571 -0.554742 -8.0616 22.0726 0.17488 7.70801 -10.5615 -2.48907 1.66062 
92.4877 90.1336 54.5521 66.4885 -43.7344 66.9223 -168.727 59.5111 75.2086 -86.2203 16.4548 0.851686 55.398 1.61846 9.73998 53.0847 -0.827652 7.14943 173.678 4.6394 90.2875 -29.7764 -7.47891 2.64125 60.6899 4.97544 11.4797 58.1906 -2.89864 11.4967 1.2004 9.24436 -90.0752 8.39266 2.36227 -0.288174 -3.27611 2.34731 -0.391928 -25.8286 2.33958 0.435496 -5.81596 2.33956 0.435496 98.603 -31.8807 -89.2892 39.344 -33.275 9.6596 -7.28704 15.7263 -116.636 -12.6739 -0.711777 1.30217 -85.552 -49.8081 85.1208 8.95486 36.0901 -16.284 -25.657 -11.7656 -96.546 4.31943 -0.573724 -12.6176 12.8173 -4.08759 2.65535 -7.16802 -4.60869 -1.41024 
